<!-- icon666.com - MILLIONS OF FREE VECTOR ICONS --><svg viewBox="0 0 24 24" xmlns="http://www.w3.org/2000/svg"><g id="Exit"><path d="m12 1a11 11 0 1 0 11 11 11.013 11.013 0 0 0 -11-11zm4.949 14.536a1 1 0 1 1 -1.414 1.414l-3.535-3.536-3.536 3.536a1 1 0 0 1 -1.414-1.414l3.536-3.536-3.536-3.536a1 1 0 1 1 1.414-1.414l3.536 3.536 3.535-3.536a1 1 0 1 1 1.414 1.414l-3.535 3.536z" fill="#1de9b6" style="fill: rgb(0, 0, 0);"></path><path d="m16.949 7.05a1 1 0 0 0 -1.414 0l-3.535 3.536-3.536-3.536a1 1 0 1 0 -1.414 1.414l3.536 3.536-3.536 3.536a1 1 0 1 0 1.414 1.414l3.536-3.536 3.535 3.536a1 1 0 0 0 1.414-1.414l-3.535-3.536 3.535-3.536a1 1 0 0 0 0-1.414z" fill="#004d40" style="fill: rgb(255, 255, 255);"></path></g></svg>