<!-- icon666.com - MILLIONS OF FREE VECTOR ICONS --><svg version="1.1" id="Capa_1" xmlns="http://www.w3.org/2000/svg" xmlns:xlink="http://www.w3.org/1999/xlink" x="0px" y="0px" viewBox="0 0 327.508 327.508" style="enable-background:new 0 0 327.508 327.508;" xml:space="preserve"><g><path d="M316.807,68.98L258.35,6.132c-6.539-7.029-17.282-8.164-25.136-2.63L128.241,77.373c-3.672-0.417-7.323-0.64-10.914-0.64 c-45.478,0-69.938,33.162-70.953,34.564c-5.503,7.614-4.693,18.071,1.918,24.764l60.381,61.149l-97.491,97.488 c-7.506,7.506-7.506,19.671,0,27.178c3.759,3.759,8.677,5.632,13.595,5.632c4.921,0,9.839-1.873,13.589-5.632l97.313-97.302 l56.244,56.943c3.705,3.765,8.665,5.717,13.673,5.717c3.339,0,6.701-0.865,9.733-2.643c30.763-18.068,29.706-71.835,27.256-97.518 l75.09-92.915C323.694,86.719,323.321,75.997,316.807,68.98z"></path></g></svg>