<svg width="36" height="35" viewBox="0 0 36 35" fill="none" xmlns="http://www.w3.org/2000/svg">
<path d="M18 0C8.064 0 0 7.84 0 17.5C0 27.16 8.064 35 18 35C27.936 35 36 27.16 36 17.5C36 7.84 27.936 0 18 0ZM18 5.25C20.988 5.25 23.4 7.595 23.4 10.5C23.4 13.405 20.988 15.75 18 15.75C15.012 15.75 12.6 13.405 12.6 10.5C12.6 7.595 15.012 5.25 18 5.25ZM18 30.1C13.5 30.1 9.522 27.86 7.2 24.465C7.254 20.9825 14.4 19.075 18 19.075C21.582 19.075 28.746 20.9825 28.8 24.465C26.478 27.86 22.5 30.1 18 30.1Z" fill="black"/>
</svg>
