<!-- icon666.com - MILLIONS OF FREE VECTOR ICONS --><svg id="_x31_23" enable-background="new 0 0 512 512" viewBox="0 0 512 512" xmlns="http://www.w3.org/2000/svg"><path d="m6 256c0 138.1 111.9 250 250 250 138.1 0 250-111.9 250-250 0-138.1-111.9-250-250-250-138.1 0-250 111.9-250 250zm203.1 84v-46.8h-66.4c-6.5 0-11.7-5.2-11.7-11.7v-46.9c0-6.5 5.2-11.7 11.7-11.7h66.4v-46.9c0-10.5 12.7-15.6 20-8.3l82 82c4.6 4.5 4.6 12 0 16.6l-82 82c-7.3 7.3-20 2.2-20-8.3zm171.9-39.2c0 26.1-21 47-46.9 47h-41c-3.2 0-5.9-2.6-5.9-5.9v-19.5c0-3.2 2.6-5.9 5.9-5.9h41c8.7 0 15.6-7 15.6-15.6v-93.7c0-8.7-7-15.6-15.6-15.6h-41c-3.2 0-5.9-2.6-5.9-5.9v-19.6c0-3.2 2.6-5.9 5.9-5.9h41c25.9 0 46.9 21 46.9 46.9z"></path></svg>