<svg viewBox="0 0 512 512" xmlns="http://www.w3.org/2000/svg">
  <!-- Голубой круг подложки -->
  <circle cx="256" cy="256" r="240" fill="#ffffff" />

  <!-- Черная фигура сверху -->
  <path d="m182.947 265.42h146.106v115.905h-146.106zm71.184-134.744h-71.185v35.175h71.185zm257.868 125.324c0 141.159-114.841 256-256 256s-255.999-114.842-255.999-256 114.841-256 256-256 255.999 114.841 255.999 256zm-110.675-60.402c0-2.652-1.054-5.196-2.929-7.071l-74.922-74.922c-1.875-1.875-4.418-2.929-7.071-2.929h-195.726c-5.523 0-10 4.477-10 10v270.648c0 5.523 4.477 10 10 10h270.648c5.523 0 10-4.477 10-10zm-127.193-64.922v45.175c0 5.523-4.477 10-10 10h-91.185c-5.523 0-10-4.477-10-10v-45.175h-32.271v250.648h32.271v-125.904c0-5.523 4.477-10 10-10h166.106c5.523 0 10 4.477 10 10v125.905h32.271v-181.585l-69.064-69.064z" fill="#000000"/>
</svg>
