<svg width="37" height="35" viewBox="0 0 37 35" fill="none" xmlns="http://www.w3.org/2000/svg">
<path d="M0 14.5648C0 22.5998 6.74125 29.1296 15.02 29.1296C18.8341 29.1296 22.323 27.7391 24.9766 25.4598L34.5489 34.742C34.7263 34.914 34.9554 35 35.192 35C35.4285 35 35.6576 34.914 35.835 34.742C36.1898 34.3979 36.1898 33.846 35.835 33.5019L26.2554 24.2197C28.6059 21.6465 30.0399 18.2705 30.0399 14.5648C30.0399 6.5298 23.2987 0 15.02 0C6.74125 0 0 6.5298 0 14.5648ZM28.229 14.5648C28.229 21.625 22.3008 27.3735 15.02 27.3735C7.73913 27.3735 1.81097 21.625 1.81097 14.5648C1.81097 7.50461 7.73913 1.75609 15.02 1.75609C22.3008 1.75609 28.229 7.49744 28.229 14.5648Z" fill="black"/>
<path d="M0 14.5648C0 22.5998 6.74125 29.1296 15.02 29.1296C18.8341 29.1296 22.323 27.7391 24.9766 25.4598L34.5489 34.742C34.7263 34.914 34.9554 35 35.192 35C35.4285 35 35.6576 34.914 35.835 34.742C36.1898 34.3979 36.1898 33.846 35.835 33.5019L26.2554 24.2197C28.6059 21.6465 30.0399 18.2705 30.0399 14.5648C30.0399 6.5298 23.2987 0 15.02 0C6.74125 0 0 6.5298 0 14.5648ZM28.229 14.5648C28.229 21.625 22.3008 27.3735 15.02 27.3735C7.73913 27.3735 1.81097 21.625 1.81097 14.5648C1.81097 7.50461 7.73913 1.75609 15.02 1.75609C22.3008 1.75609 28.229 7.49744 28.229 14.5648Z" fill="black" fill-opacity="0.2"/>
</svg>
