<svg xmlns="http://www.w3.org/2000/svg" version="1.1" xmlns:xlink="http://www.w3.org/1999/xlink" width="32px" height="32px"><svg xmlns="http://www.w3.org/2000/svg" version="1.1" xmlns:xlink="http://www.w3.org/1999/xlink" width="32px" height="32px"><svg xmlns="http://www.w3.org/2000/svg" version="1.1" xmlns:xlink="http://www.w3.org/1999/xlink" width="32px" height="32px"><svg xmlns="http://www.w3.org/2000/svg" xmlns:xlink="http://www.w3.org/1999/xlink" width="32px" height="32px" viewBox="0 0 32 32" version="1.1">
<g id="SvgjsG1100">
<path style=" stroke:none;fill-rule:evenodd;fill:rgb(5.490196%,5.490196%,5.490196%);fill-opacity:1;" d="M 20.347656 3.8125 C 20.300781 3.816406 20.269531 3.84375 20.257812 3.890625 C 20.511719 3.96875 20.765625 3.996094 21.035156 3.972656 C 22.421875 4.164062 23.761719 4.492188 25.0625 4.957031 C 25.445312 5.179688 25.804688 5.429688 26.136719 5.707031 C 26.550781 6.578125 26.679688 7.488281 26.519531 8.425781 C 26.320312 8.507812 26.121094 8.585938 25.921875 8.664062 C 24.832031 8.714844 23.75 8.714844 22.664062 8.664062 C 22.003906 8.496094 21.519531 8.140625 21.203125 7.597656 C 19.722656 7.402344 18.234375 7.390625 16.742188 7.558594 C 17.070312 7.808594 17.371094 8.085938 17.640625 8.386719 C 18.058594 9.113281 18.402344 9.875 18.671875 10.675781 C 18.730469 11.648438 18.730469 12.621094 18.671875 13.59375 C 18.609375 13.78125 18.539062 13.964844 18.457031 14.144531 C 19.3125 14.210938 20.171875 14.25 21.035156 14.265625 C 21.292969 14.273438 21.519531 14.355469 21.714844 14.5 C 22.375 14.527344 22.976562 14.710938 23.519531 15.054688 C 23.648438 15.140625 23.707031 15.257812 23.691406 15.410156 C 23.355469 15.347656 23.007812 15.320312 22.664062 15.328125 C 22.6875 15.46875 22.660156 15.601562 22.574219 15.722656 C 22.441406 15.550781 22.3125 15.367188 22.191406 15.171875 C 22.167969 15.464844 22.207031 15.753906 22.316406 16.039062 C 22.175781 16.304688 22.019531 16.277344 21.847656 15.960938 C 21.835938 16.207031 21.820312 16.441406 21.804688 16.671875 C 21.722656 16.632812 21.648438 16.582031 21.585938 16.511719 C 21.566406 15.929688 21.523438 15.351562 21.460938 14.777344 C 21.289062 14.789062 21.117188 14.777344 20.945312 14.738281 C 20.902344 14.660156 20.890625 14.566406 20.902344 14.460938 C 20.605469 14.910156 20.304688 15.355469 20.003906 15.804688 C 19.917969 15.777344 19.859375 15.722656 19.828125 15.644531 C 20.023438 15.246094 20.253906 14.863281 20.515625 14.5 C 19.828125 14.4375 19.140625 14.449219 18.457031 14.539062 C 18.070312 15.476562 17.882812 16.449219 17.898438 17.460938 C 17.523438 18.261719 17.285156 19.101562 17.171875 19.984375 C 17.183594 20.113281 17.199219 20.246094 17.210938 20.378906 C 17.503906 20.882812 17.761719 21.410156 17.988281 21.957031 C 18.367188 22.238281 18.667969 22.582031 18.886719 22.980469 C 19.472656 23.320312 20.042969 23.675781 20.605469 24.046875 C 21.152344 24.113281 21.695312 24.089844 22.234375 23.96875 C 22.777344 23.71875 23.324219 23.457031 23.863281 23.179688 C 24.492188 23.101562 25.117188 23.050781 25.75 23.019531 C 26.515625 22.710938 27.316406 22.476562 28.152344 22.308594 C 28.953125 22.257812 29.753906 22.257812 30.554688 22.308594 C 30.921875 22.398438 31.261719 22.53125 31.582031 22.703125 C 32.058594 23.148438 32.117188 23.621094 31.753906 24.125 C 29.082031 25.699219 26.167969 26.238281 23.003906 25.742188 C 22.945312 25.671875 22.859375 25.644531 22.746094 25.664062 C 22.722656 26.046875 22.75 26.414062 22.832031 26.765625 C 22.9375 27.382812 23.097656 27.988281 23.304688 28.582031 C 23.777344 30.035156 23.25 30.996094 21.714844 31.460938 C 20.714844 31.511719 19.714844 31.511719 18.714844 31.460938 C 18.035156 31.152344 17.445312 30.71875 16.957031 30.160156 C 16.179688 28.917969 16.367188 27.839844 17.511719 26.925781 C 17.222656 27.050781 16.933594 27.195312 16.660156 27.359375 C 15.882812 28.09375 15 28.671875 13.996094 29.09375 C 12.414062 29.410156 10.8125 29.511719 9.191406 29.410156 C 8.730469 28.8125 8.558594 28.144531 8.679688 27.398438 C 8.691406 27.03125 8.707031 26.660156 8.722656 26.292969 C 8.863281 26.117188 9.046875 26.011719 9.277344 25.976562 C 9.914062 25.917969 10.542969 25.839844 11.167969 25.742188 C 11.382812 25.765625 11.585938 25.738281 11.765625 25.664062 C 11.839844 25.613281 11.929688 25.589844 12.023438 25.582031 C 12.132812 25.585938 12.214844 25.546875 12.277344 25.464844 C 12.089844 25.402344 11.921875 25.417969 11.765625 25.503906 C 11.640625 25.5 11.523438 25.527344 11.425781 25.582031 C 11.144531 25.558594 10.890625 25.585938 10.648438 25.664062 C 9.980469 25.734375 9.324219 25.8125 8.679688 25.898438 C 7.203125 26.125 5.714844 26.191406 4.214844 26.097656 C 2.835938 25.628906 1.480469 25.117188 0.140625 24.558594 C -0.117188 24.109375 0.0078125 23.804688 0.527344 23.652344 C 1.957031 23.613281 3.386719 23.597656 4.816406 23.613281 C 4.773438 23.214844 4.703125 22.820312 4.605469 22.429688 C 4.203125 21.332031 4.585938 20.632812 5.761719 20.339844 C 6.445312 20.285156 7.132812 20.285156 7.820312 20.339844 C 8.324219 20.535156 8.835938 20.722656 9.363281 20.890625 C 9.507812 20.984375 9.648438 21.074219 9.792969 21.167969 C 9.855469 21.125 9.894531 21.074219 9.921875 21.007812 C 10.539062 19.144531 10.964844 17.253906 11.207031 15.328125 C 11.234375 15.207031 11.292969 15.101562 11.378906 15.015625 C 11.515625 13.015625 11.664062 11.015625 11.808594 9.019531 C 11.921875 8.53125 12.136719 8.085938 12.453125 7.679688 C 12.132812 7.617188 11.816406 7.65625 11.507812 7.796875 C 10.410156 7.9375 9.308594 7.953125 8.203125 7.835938 C 7.226562 7.957031 6.238281 7.996094 5.246094 7.953125 C 5.144531 7.863281 5.046875 7.769531 4.945312 7.679688 C 4.894531 6.355469 5.542969 5.449219 6.875 4.957031 C 7.601562 4.753906 8.316406 4.546875 9.019531 4.324219 C 11.015625 4.054688 13.019531 3.855469 15.023438 3.734375 C 15.332031 2.9375 15.722656 2.175781 16.183594 1.445312 C 16.371094 1.277344 16.554688 1.105469 16.742188 0.933594 C 17.242188 0.757812 17.753906 0.625 18.289062 0.539062 C 18.859375 0.488281 19.429688 0.488281 20.003906 0.539062 C 20.550781 0.945312 20.75 1.46875 20.605469 2.117188 C 20.632812 2.703125 20.550781 3.269531 20.347656 3.8125 Z M 20.347656 3.8125 "></path>
<path style=" stroke:none;fill-rule:evenodd;fill:rgb(98.039216%,46.666667%,12.54902%);fill-opacity:1;" d="M 13.3125 4.445312 C 13.753906 4.417969 14.183594 4.445312 14.597656 4.523438 C 14.5 4.910156 14.488281 5.304688 14.554688 5.707031 C 14.785156 6.023438 15.011719 6.023438 15.242188 5.707031 C 15.269531 5.417969 15.300781 5.128906 15.324219 4.839844 C 16 3.839844 16.558594 2.785156 17 1.683594 C 17.714844 1.464844 18.445312 1.28125 19.1875 1.132812 C 19.523438 1.097656 19.753906 1.230469 19.875 1.527344 C 19.929688 1.917969 19.929688 2.3125 19.875 2.707031 C 19.597656 3.144531 19.335938 3.589844 19.101562 4.050781 C 18.957031 4.621094 18.800781 5.183594 18.628906 5.746094 C 18.710938 6.164062 18.941406 6.257812 19.316406 6.023438 C 19.480469 5.542969 19.707031 5.097656 20.003906 4.679688 C 21.753906 4.652344 23.414062 5.007812 24.980469 5.746094 C 25.128906 5.875 25.285156 5.992188 25.449219 6.101562 C 25.761719 6.679688 25.890625 7.28125 25.835938 7.914062 C 25.75 7.953125 25.664062 7.992188 25.578125 8.03125 C 24.691406 8.085938 23.804688 8.085938 22.921875 8.03125 C 22.300781 7.839844 21.839844 7.472656 21.546875 6.929688 C 21.230469 6.882812 20.917969 6.832031 20.605469 6.769531 C 18.199219 6.722656 15.796875 6.75 13.394531 6.851562 C 12.652344 6.925781 11.910156 7.03125 11.167969 7.164062 C 9.707031 7.191406 8.25 7.21875 6.792969 7.246094 C 6.390625 7.367188 5.992188 7.378906 5.585938 7.285156 C 5.769531 6.789062 6.058594 6.355469 6.445312 5.980469 C 7.371094 5.5 8.339844 5.15625 9.363281 4.957031 C 10.683594 4.765625 11.996094 4.597656 13.3125 4.445312 Z M 13.3125 4.445312 "></path>
<path style=" stroke:none;fill-rule:evenodd;fill:rgb(76.47059%,44.705883%,76.47059%);fill-opacity:1;" d="M 18.027344 11.070312 C 18.058594 11.480469 18.027344 11.875 17.941406 12.253906 C 17.933594 12.203125 17.902344 12.164062 17.859375 12.136719 C 17.285156 12.03125 16.753906 12.121094 16.269531 12.410156 C 16.078125 12.917969 16.265625 13.128906 16.828125 13.042969 C 16.804688 13.601562 16.734375 14.152344 16.613281 14.699219 C 16.4375 14.796875 16.238281 14.851562 16.011719 14.855469 C 15.480469 14.8125 14.976562 14.667969 14.511719 14.421875 C 14.210938 13.992188 13.894531 13.570312 13.566406 13.160156 C 13.394531 13.109375 13.226562 13.109375 13.054688 13.160156 C 13.003906 13.230469 12.976562 13.308594 12.964844 13.398438 C 13.148438 13.722656 13.335938 14.054688 13.523438 14.382812 C 14.355469 15.320312 15.425781 15.703125 16.742188 15.527344 C 17.117188 15.324219 17.328125 15.023438 17.386719 14.621094 C 17.476562 14.539062 17.574219 14.527344 17.6875 14.582031 C 17.359375 15.398438 17.199219 16.25 17.210938 17.144531 C 17.136719 17.210938 17.078125 17.289062 17.042969 17.378906 C 16.851562 18.003906 16.679688 18.636719 16.527344 19.273438 C 16.332031 20.09375 16.503906 20.832031 17.042969 21.480469 C 17.125 22.140625 17.472656 22.640625 18.070312 22.980469 C 18.117188 23.179688 18.214844 23.351562 18.371094 23.492188 C 19.070312 23.828125 19.730469 24.222656 20.347656 24.675781 C 21.035156 24.828125 21.722656 24.828125 22.402344 24.675781 C 22.960938 24.328125 23.566406 24.039062 24.203125 23.808594 C 25.171875 23.769531 26.117188 23.636719 27.039062 23.414062 C 27.199219 23.25 27.398438 23.144531 27.636719 23.097656 C 28.226562 22.941406 28.824219 22.875 29.4375 22.902344 C 29.152344 23.367188 29.269531 23.75 29.785156 24.046875 C 29.914062 24.125 30.054688 24.164062 30.210938 24.164062 C 29.355469 24.597656 28.4375 24.902344 27.464844 25.070312 C 26.636719 25.148438 25.808594 25.1875 24.980469 25.191406 C 24.078125 25.210938 23.191406 25.144531 22.316406 24.992188 C 22.246094 25.058594 22.175781 25.125 22.105469 25.191406 C 22.046875 25.792969 22.046875 26.398438 22.105469 27.003906 C 22.265625 27.554688 22.4375 28.105469 22.621094 28.660156 C 22.675781 29.132812 22.675781 29.605469 22.621094 30.082031 C 22.457031 30.171875 22.386719 30.300781 22.402344 30.472656 C 22.128906 30.605469 21.839844 30.726562 21.546875 30.828125 C 20.6875 30.882812 19.828125 30.882812 18.972656 30.828125 C 18.742188 30.628906 18.484375 30.484375 18.199219 30.394531 C 19.449219 30.554688 20.707031 30.59375 21.976562 30.515625 C 22.425781 30.164062 22.425781 29.824219 21.976562 29.488281 C 21.117188 29.460938 20.257812 29.4375 19.398438 29.410156 C 19.023438 29.199219 18.625 29.054688 18.199219 28.976562 C 17.730469 29.015625 17.5 29.25 17.511719 29.6875 C 16.972656 28.90625 17.082031 28.210938 17.859375 27.59375 C 18.839844 27.507812 19.128906 27.0625 18.714844 26.253906 C 18.199219 26.203125 17.6875 26.203125 17.171875 26.253906 C 16.285156 26.820312 15.425781 27.425781 14.597656 28.070312 C 14.265625 28.25 13.925781 28.40625 13.566406 28.542969 C 12.871094 28.695312 12.152344 28.761719 11.425781 28.738281 C 11.546875 28.445312 11.527344 28.15625 11.378906 27.871094 C 11.132812 27.773438 10.886719 27.667969 10.648438 27.554688 C 10.441406 27.273438 10.300781 26.972656 10.222656 26.648438 C 9.996094 26.609375 9.765625 26.597656 9.539062 26.609375 C 9.6875 26.535156 9.859375 26.507812 10.050781 26.53125 C 10.820312 26.511719 11.5625 26.394531 12.277344 26.175781 C 13.714844 26.074219 15.117188 25.8125 16.484375 25.386719 C 16.671875 25.222656 16.695312 25.039062 16.570312 24.835938 C 14.882812 24.78125 13.195312 24.78125 11.507812 24.835938 C 10.320312 25.058594 9.121094 25.242188 7.902344 25.386719 C 6.707031 25.5 5.503906 25.527344 4.304688 25.464844 C 3.851562 25.269531 3.390625 25.097656 2.929688 24.953125 C 3.464844 24.941406 3.636719 24.703125 3.445312 24.242188 C 3.757812 24.230469 4.074219 24.242188 4.386719 24.28125 C 4.632812 24.9375 5.019531 25.03125 5.546875 24.558594 C 5.605469 24.191406 5.605469 23.824219 5.546875 23.453125 C 5.417969 22.886719 5.316406 22.308594 5.246094 21.71875 C 5.238281 21.292969 5.464844 21.042969 5.933594 20.96875 C 6.667969 20.878906 7.378906 20.929688 8.078125 21.128906 C 8.441406 21.308594 8.8125 21.480469 9.191406 21.640625 C 9.640625 22.078125 10.070312 22.539062 10.480469 23.019531 C 11.050781 23.285156 11.320312 23.140625 11.296875 22.585938 C 10.339844 22.242188 10.171875 21.691406 10.777344 20.929688 C 10.898438 20.28125 11.070312 19.648438 11.296875 19.035156 C 11.539062 17.894531 11.738281 16.738281 11.894531 15.566406 C 11.921875 15.445312 11.976562 15.339844 12.066406 15.25 C 12.203125 13.253906 12.347656 11.253906 12.496094 9.253906 C 12.621094 8.679688 12.890625 8.164062 13.3125 7.71875 C 14.527344 7.519531 15.644531 7.730469 16.660156 8.347656 C 16.839844 8.570312 17.027344 8.796875 17.210938 9.019531 C 17.398438 9.4375 17.601562 9.859375 17.8125 10.28125 C 17.894531 10.542969 17.964844 10.804688 18.027344 11.070312 Z M 18.027344 11.070312 "></path>
<path style=" stroke:none;fill-rule:evenodd;fill:rgb(4.313726%,4.313726%,4.313726%);fill-opacity:1;" d="M 16.054688 10.042969 C 16.226562 10.027344 16.382812 10.050781 16.527344 10.125 C 16.660156 10.625 16.527344 11.058594 16.140625 11.425781 C 15.5625 11.527344 15.203125 11.300781 15.070312 10.753906 C 15.011719 10.570312 15.011719 10.386719 15.070312 10.203125 C 15.492188 10.035156 15.722656 10.167969 15.753906 10.597656 C 15.921875 10.441406 16.019531 10.257812 16.054688 10.042969 Z M 16.054688 10.042969 "></path>
<path style=" stroke:none;fill-rule:evenodd;fill:rgb(1.960784%,1.960784%,1.960784%);fill-opacity:1;" d="M 14.253906 10.28125 C 14.238281 10.414062 14.292969 10.492188 14.425781 10.519531 C 14.480469 10.527344 14.519531 10.554688 14.554688 10.597656 C 14.726562 11.308594 14.425781 11.558594 13.652344 11.347656 C 13.613281 11.304688 13.566406 11.265625 13.523438 11.226562 C 13.464844 10.914062 13.464844 10.597656 13.523438 10.28125 C 13.777344 10.074219 14.019531 10.074219 14.253906 10.28125 Z M 14.253906 10.28125 "></path>
<path style=" stroke:none;fill-rule:evenodd;fill:rgb(72.549021%,47.058824%,72.156864%);fill-opacity:1;" d="M 17.6875 13.042969 C 17.789062 13.101562 17.902344 13.125 18.027344 13.121094 C 17.953125 13.484375 17.894531 13.855469 17.859375 14.226562 C 17.457031 14.34375 17.347656 14.214844 17.511719 13.832031 C 17.570312 13.566406 17.628906 13.304688 17.6875 13.042969 Z M 17.6875 13.042969 "></path>
<path style=" stroke:none;fill-rule:evenodd;fill:rgb(99.215686%,99.215686%,99.215686%);fill-opacity:1;" d="M 13.566406 15.882812 C 14.328125 15.816406 15.042969 15.945312 15.710938 16.277344 C 16.484375 17.429688 16.601562 18.636719 16.054688 19.90625 C 15.402344 20.441406 14.714844 20.941406 13.996094 21.402344 C 13.128906 21.621094 12.375 21.464844 11.726562 20.929688 C 11.667969 19.824219 11.667969 18.722656 11.726562 17.617188 C 11.992188 16.714844 12.609375 16.136719 13.566406 15.882812 Z M 13.566406 15.882812 "></path>
<path style=" stroke:none;fill-rule:evenodd;fill:rgb(4.313726%,4.313726%,4.313726%);fill-opacity:1;" d="M 13.3125 16.671875 C 13.855469 16.65625 14.394531 16.671875 14.941406 16.710938 C 15.277344 16.695312 15.425781 16.839844 15.371094 17.144531 C 14.769531 17.078125 14.171875 17.066406 13.566406 17.105469 C 13.101562 17.378906 12.839844 17.773438 12.796875 18.289062 C 12.820312 18.398438 12.875 18.488281 12.964844 18.5625 C 13.433594 18.796875 13.820312 19.113281 14.125 19.511719 C 14.199219 19.96875 13.984375 20.273438 13.484375 20.417969 C 13.023438 20.46875 12.566406 20.46875 12.109375 20.417969 C 11.996094 20.3125 11.996094 20.207031 12.109375 20.101562 C 12.480469 20.074219 12.855469 20.050781 13.226562 20.023438 C 13.398438 19.96875 13.546875 19.875 13.652344 19.746094 C 13.335938 19.363281 12.949219 19.046875 12.496094 18.800781 C 12.269531 17.921875 12.542969 17.210938 13.3125 16.671875 Z M 13.3125 16.671875 "></path>
<path style=" stroke:none;fill-rule:evenodd;fill:rgb(70.980394%,30.588236%,70.588237%);fill-opacity:1;" d="M 30.210938 24.164062 C 30.054688 24.164062 29.914062 24.125 29.785156 24.046875 C 29.269531 23.75 29.152344 23.367188 29.4375 22.902344 C 29.671875 22.75 29.925781 22.710938 30.210938 22.785156 C 30.597656 23.019531 30.972656 23.269531 31.324219 23.53125 C 31.074219 23.6875 30.847656 23.871094 30.640625 24.085938 C 30.503906 24.148438 30.363281 24.175781 30.210938 24.164062 Z M 30.210938 24.164062 "></path>
<path style=" stroke:none;fill-rule:evenodd;fill:rgb(76.47059%,44.705883%,76.47059%);fill-opacity:1;" d="M 1.558594 24.164062 C 1.472656 24.214844 1.386719 24.269531 1.300781 24.320312 C 1.179688 24.304688 1.0625 24.265625 0.957031 24.203125 C 1.152344 24.164062 1.355469 24.152344 1.558594 24.164062 Z M 1.558594 24.164062 "></path>
<path style=" stroke:none;fill-rule:evenodd;fill:rgb(69.803923%,30.19608%,69.803923%);fill-opacity:1;" d="M 3.445312 24.242188 C 3.636719 24.703125 3.464844 24.941406 2.929688 24.953125 C 2.898438 24.953125 2.871094 24.953125 2.847656 24.953125 C 2.480469 24.730469 2.078125 24.601562 1.640625 24.558594 C 1.5625 24.441406 1.449219 24.363281 1.300781 24.320312 C 1.386719 24.269531 1.472656 24.214844 1.558594 24.164062 C 1.679688 24.054688 1.820312 23.972656 1.988281 23.925781 C 2.457031 24.089844 2.945312 24.195312 3.445312 24.242188 Z M 3.445312 24.242188 "></path>
<path style=" stroke:none;fill-rule:evenodd;fill:rgb(47.450981%,16.078432%,47.450981%);fill-opacity:1;" d="M 1.640625 24.558594 C 2.078125 24.601562 2.480469 24.730469 2.847656 24.953125 C 2.367188 24.996094 1.964844 24.863281 1.640625 24.558594 Z M 1.640625 24.558594 "></path>
<path style=" stroke:none;fill-rule:evenodd;fill:rgb(47.843137%,16.078432%,47.843137%);fill-opacity:1;" d="M 10.050781 26.53125 C 9.859375 26.507812 9.6875 26.535156 9.539062 26.609375 C 9.449219 26.601562 9.378906 26.628906 9.320312 26.6875 C 9.238281 27.332031 9.277344 27.960938 9.449219 28.582031 C 9.328125 28.441406 9.230469 28.285156 9.148438 28.109375 C 9.089844 27.636719 9.089844 27.160156 9.148438 26.6875 C 9.410156 26.347656 9.707031 26.296875 10.050781 26.53125 Z M 10.050781 26.53125 "></path>
<path style=" stroke:none;fill-rule:evenodd;fill:rgb(72.549021%,30.19608%,72.549021%);fill-opacity:1;" d="M 9.539062 26.609375 C 9.765625 26.597656 9.996094 26.609375 10.222656 26.648438 C 10.300781 26.972656 10.441406 27.273438 10.648438 27.554688 C 10.886719 27.667969 11.132812 27.773438 11.378906 27.871094 C 11.527344 28.15625 11.546875 28.445312 11.425781 28.738281 C 11.425781 28.792969 11.394531 28.816406 11.335938 28.816406 C 10.765625 28.816406 10.191406 28.816406 9.621094 28.816406 C 9.546875 28.753906 9.488281 28.675781 9.449219 28.582031 C 9.277344 27.960938 9.238281 27.332031 9.320312 26.6875 C 9.378906 26.628906 9.449219 26.601562 9.539062 26.609375 Z M 9.539062 26.609375 "></path>
<path style=" stroke:none;fill-rule:evenodd;fill:rgb(52.941179%,20.392157%,52.941179%);fill-opacity:1;" d="M 9.621094 28.816406 C 10.191406 28.816406 10.765625 28.816406 11.335938 28.816406 C 11.082031 29.011719 10.785156 29.089844 10.4375 29.054688 C 10.25 29.042969 10.066406 29.027344 9.878906 29.015625 C 9.753906 28.984375 9.671875 28.917969 9.621094 28.816406 Z M 9.621094 28.816406 "></path>
<path style=" stroke:none;fill-rule:evenodd;fill:rgb(72.549021%,29.803923%,72.549021%);fill-opacity:1;" d="M 18.199219 30.394531 C 17.984375 30.160156 17.753906 29.925781 17.511719 29.6875 C 17.5 29.25 17.730469 29.015625 18.199219 28.976562 C 18.625 29.054688 19.023438 29.199219 19.398438 29.410156 C 20.257812 29.4375 21.117188 29.460938 21.976562 29.488281 C 22.425781 29.824219 22.425781 30.164062 21.976562 30.515625 C 20.707031 30.59375 19.449219 30.554688 18.199219 30.394531 Z M 18.199219 30.394531 "></path>
</g>
</svg><style>@media (prefers-color-scheme: light) { :root { filter: none; } }
@media (prefers-color-scheme: dark) { :root { filter: none; } }
</style></svg><style>@media (prefers-color-scheme: light) { :root { filter: none; } }
@media (prefers-color-scheme: dark) { :root { filter: none; } }
</style></svg><style>@media (prefers-color-scheme: light) { :root { filter: none; } }
@media (prefers-color-scheme: dark) { :root { filter: none; } }
</style></svg>