<svg xmlns="http://www.w3.org/2000/svg" xmlns:xlink="http://www.w3.org/1999/xlink" width="30px" height="32px" viewBox="0 0 30 31" version="1.1">
<g id="surface1">
<path style="fill-rule: evenodd; fill: rgb(14, 14, 14); fill-opacity: 1; visibility: visible; opacity: 1;" d="M 19.074219 3.3125 C 19.03125 3.316406 19.003906 3.34375 18.992188 3.390625 C 19.230469 3.46875 19.46875 3.496094 19.71875 3.472656 C 21.019531 3.664062 22.277344 3.992188 23.496094 4.457031 C 23.855469 4.679688 24.191406 4.929688 24.503906 5.207031 C 24.890625 6.078125 25.011719 6.988281 24.863281 7.925781 C 24.675781 8.007812 24.488281 8.085938 24.300781 8.164062 C 23.28125 8.214844 22.265625 8.214844 21.246094 8.164062 C 20.628906 7.996094 20.175781 7.640625 19.878906 7.097656 C 18.488281 6.902344 17.09375 6.890625 15.695312 7.058594 C 16.003906 7.308594 16.285156 7.585938 16.539062 7.886719 C 16.929688 8.613281 17.253906 9.375 17.503906 10.175781 C 17.558594 11.148438 17.558594 12.121094 17.503906 13.09375 C 17.445312 13.28125 17.378906 13.464844 17.304688 13.644531 C 18.105469 13.710938 18.910156 13.75 19.71875 13.765625 C 19.960938 13.773438 20.175781 13.855469 20.359375 14 C 20.976562 14.027344 21.539062 14.210938 22.050781 14.554688 C 22.171875 14.640625 22.226562 14.757812 22.210938 14.910156 C 21.894531 14.847656 21.570312 14.820312 21.246094 14.828125 C 21.269531 14.96875 21.242188 15.101562 21.164062 15.222656 C 21.039062 15.050781 20.917969 14.867188 20.804688 14.671875 C 20.78125 14.964844 20.820312 15.253906 20.921875 15.539062 C 20.789062 15.804688 20.644531 15.777344 20.480469 15.460938 C 20.472656 15.707031 20.457031 15.941406 20.441406 16.171875 C 20.363281 16.132812 20.296875 16.082031 20.238281 16.011719 C 20.21875 15.429688 20.179688 14.851562 20.121094 14.277344 C 19.957031 14.289062 19.796875 14.277344 19.636719 14.238281 C 19.597656 14.160156 19.585938 14.066406 19.597656 13.960938 C 19.316406 14.410156 19.035156 14.855469 18.753906 15.304688 C 18.671875 15.277344 18.617188 15.222656 18.589844 15.144531 C 18.773438 14.746094 18.988281 14.363281 19.234375 14 C 18.589844 13.9375 17.945312 13.949219 17.304688 14.039062 C 16.941406 14.976562 16.765625 15.949219 16.78125 16.960938 C 16.429688 17.761719 16.203125 18.601562 16.097656 19.484375 C 16.109375 19.613281 16.125 19.746094 16.136719 19.878906 C 16.410156 20.382812 16.652344 20.910156 16.863281 21.457031 C 17.21875 21.738281 17.5 22.082031 17.707031 22.480469 C 18.253906 22.820312 18.789062 23.175781 19.316406 23.546875 C 19.832031 23.613281 20.339844 23.589844 20.84375 23.46875 C 21.355469 23.21875 21.867188 22.957031 22.371094 22.679688 C 22.960938 22.601562 23.546875 22.550781 24.140625 22.519531 C 24.859375 22.210938 25.609375 21.976562 26.394531 21.808594 C 27.144531 21.757812 27.894531 21.757812 28.644531 21.808594 C 28.988281 21.898438 29.308594 22.03125 29.609375 22.203125 C 30.054688 22.648438 30.109375 23.121094 29.769531 23.625 C 27.265625 25.199219 24.53125 25.738281 21.566406 25.242188 C 21.511719 25.171875 21.429688 25.144531 21.324219 25.164062 C 21.300781 25.546875 21.328125 25.914062 21.40625 26.265625 C 21.503906 26.882812 21.652344 27.488281 21.847656 28.082031 C 22.292969 29.535156 21.796875 30.496094 20.359375 30.960938 C 19.421875 31.011719 18.484375 31.011719 17.546875 30.960938 C 16.90625 30.652344 16.355469 30.21875 15.898438 29.660156 C 15.167969 28.417969 15.34375 27.339844 16.417969 26.425781 C 16.144531 26.550781 15.875 26.695312 15.617188 26.859375 C 14.890625 27.59375 14.0625 28.171875 13.121094 28.59375 C 11.636719 28.910156 10.136719 29.011719 8.617188 28.910156 C 8.183594 28.3125 8.023438 27.644531 8.136719 26.898438 C 8.148438 26.53125 8.164062 26.160156 8.175781 25.792969 C 8.308594 25.617188 8.480469 25.511719 8.699219 25.476562 C 9.292969 25.417969 9.882812 25.339844 10.46875 25.242188 C 10.671875 25.265625 10.863281 25.238281 11.03125 25.164062 C 11.101562 25.113281 11.183594 25.089844 11.273438 25.082031 C 11.375 25.085938 11.453125 25.046875 11.511719 24.964844 C 11.335938 24.902344 11.175781 24.917969 11.03125 25.003906 C 10.914062 25 10.804688 25.027344 10.710938 25.082031 C 10.449219 25.058594 10.210938 25.085938 9.984375 25.164062 C 9.355469 25.234375 8.742188 25.3125 8.136719 25.398438 C 6.753906 25.625 5.359375 25.691406 3.953125 25.597656 C 2.660156 25.128906 1.386719 24.617188 0.132812 24.058594 C -0.109375 23.609375 0.0078125 23.304688 0.496094 23.152344 C 1.835938 23.113281 3.175781 23.097656 4.515625 23.113281 C 4.476562 22.714844 4.410156 22.320312 4.316406 21.929688 C 3.941406 20.832031 4.300781 20.132812 5.402344 19.839844 C 6.042969 19.785156 6.6875 19.785156 7.332031 19.839844 C 7.804688 20.035156 8.285156 20.222656 8.777344 20.390625 C 8.914062 20.484375 9.046875 20.574219 9.179688 20.667969 C 9.238281 20.625 9.277344 20.574219 9.300781 20.507812 C 9.878906 18.644531 10.28125 16.753906 10.507812 14.828125 C 10.53125 14.707031 10.585938 14.601562 10.667969 14.515625 C 10.796875 12.515625 10.933594 10.515625 11.070312 8.519531 C 11.175781 8.03125 11.378906 7.585938 11.675781 7.179688 C 11.375 7.117188 11.078125 7.15625 10.789062 7.296875 C 9.757812 7.4375 8.726562 7.453125 7.691406 7.335938 C 6.773438 7.457031 5.847656 7.496094 4.917969 7.453125 C 4.824219 7.363281 4.730469 7.269531 4.636719 7.179688 C 4.589844 5.855469 5.195312 4.949219 6.445312 4.457031 C 7.125 4.253906 7.796875 4.046875 8.457031 3.824219 C 10.328125 3.554688 12.207031 3.355469 14.085938 3.234375 C 14.375 2.4375 14.738281 1.675781 15.171875 0.945312 C 15.347656 0.777344 15.519531 0.605469 15.695312 0.433594 C 16.164062 0.257812 16.644531 0.125 17.144531 0.0390625 C 17.679688 -0.0117188 18.214844 -0.0117188 18.753906 0.0390625 C 19.265625 0.445312 19.453125 0.96875 19.316406 1.617188 C 19.34375 2.203125 19.265625 2.769531 19.074219 3.3125 Z M 19.074219 3.3125 " data-index="0"></path>
<path style="fill-rule: evenodd; fill: rgb(250, 119, 32); fill-opacity: 1; opacity: 1;" d="M 12.480469 3.945312 C 12.894531 3.917969 13.296875 3.945312 13.683594 4.023438 C 13.59375 4.410156 13.582031 4.804688 13.644531 5.207031 C 13.859375 5.523438 14.074219 5.523438 14.289062 5.207031 C 14.316406 4.917969 14.34375 4.628906 14.367188 4.339844 C 15 3.339844 15.523438 2.285156 15.9375 1.183594 C 16.609375 0.964844 17.292969 0.78125 17.988281 0.632812 C 18.304688 0.597656 18.519531 0.730469 18.632812 1.027344 C 18.683594 1.417969 18.683594 1.8125 18.632812 2.207031 C 18.371094 2.644531 18.128906 3.089844 17.90625 3.550781 C 17.773438 4.121094 17.625 4.683594 17.464844 5.246094 C 17.542969 5.664062 17.757812 5.757812 18.109375 5.523438 C 18.261719 5.042969 18.476562 4.597656 18.753906 4.179688 C 20.394531 4.152344 21.949219 4.507812 23.417969 5.246094 C 23.558594 5.375 23.703125 5.492188 23.859375 5.601562 C 24.152344 6.179688 24.273438 6.78125 24.222656 7.414062 C 24.140625 7.453125 24.058594 7.492188 23.980469 7.53125 C 23.148438 7.585938 22.316406 7.585938 21.488281 7.53125 C 20.90625 7.339844 20.476562 6.972656 20.199219 6.429688 C 19.902344 6.382812 19.609375 6.332031 19.316406 6.269531 C 17.0625 6.222656 14.808594 6.25 12.558594 6.351562 C 11.863281 6.425781 11.164062 6.53125 10.46875 6.664062 C 9.101562 6.691406 7.734375 6.71875 6.367188 6.746094 C 5.992188 6.867188 5.617188 6.878906 5.238281 6.785156 C 5.410156 6.289062 5.679688 5.855469 6.042969 5.480469 C 6.910156 5 7.820312 4.65625 8.777344 4.457031 C 10.015625 4.265625 11.246094 4.097656 12.480469 3.945312 Z M 12.480469 3.945312 " data-index="1"></path>

<path style="fill-rule: evenodd; fill: rgb(130, 130, 130); fill-opacity: 1; opacity: 1; visibility: hidden;" d="M 12.480469 3.945312 C 12.894531 3.839844 13.324219 3.839844 13.765625 3.945312 C 13.753906 3.992188 13.730469 4.019531 13.683594 4.023438 C 13.296875 3.945312 12.894531 3.917969 12.480469 3.945312 Z M 12.480469 3.945312 " data-index="3"></path>
<path style="fill-rule: evenodd; fill: rgb(195, 114, 195); fill-opacity: 1; opacity: 1;" d="M 16.902344 10.570312 C 16.929688 10.980469 16.902344 11.375 16.820312 11.753906 C 16.8125 11.703125 16.785156 11.664062 16.742188 11.636719 C 16.203125 11.53125 15.707031 11.621094 15.253906 11.910156 C 15.074219 12.417969 15.25 12.628906 15.777344 12.542969 C 15.753906 13.101562 15.6875 13.652344 15.574219 14.199219 C 15.410156 14.296875 15.222656 14.351562 15.011719 14.355469 C 14.511719 14.3125 14.039062 14.167969 13.605469 13.921875 C 13.324219 13.492188 13.027344 13.070312 12.71875 12.660156 C 12.558594 12.609375 12.398438 12.609375 12.238281 12.660156 C 12.191406 12.730469 12.164062 12.808594 12.15625 12.898438 C 12.328125 13.222656 12.503906 13.554688 12.679688 13.882812 C 13.457031 14.820312 14.460938 15.203125 15.695312 15.027344 C 16.046875 14.824219 16.246094 14.523438 16.300781 14.121094 C 16.382812 14.039062 16.476562 14.027344 16.582031 14.082031 C 16.273438 14.898438 16.125 15.75 16.136719 16.644531 C 16.066406 16.710938 16.011719 16.789062 15.976562 16.878906 C 15.796875 17.503906 15.636719 18.136719 15.496094 18.773438 C 15.3125 19.59375 15.472656 20.332031 15.976562 20.980469 C 16.054688 21.640625 16.378906 22.140625 16.941406 22.480469 C 16.984375 22.679688 17.078125 22.851562 17.222656 22.992188 C 17.878906 23.328125 18.496094 23.722656 19.074219 24.175781 C 19.71875 24.328125 20.363281 24.328125 21.003906 24.175781 C 21.527344 23.828125 22.09375 23.539062 22.691406 23.308594 C 23.597656 23.269531 24.484375 23.136719 25.347656 22.914062 C 25.5 22.75 25.6875 22.644531 25.910156 22.597656 C 26.460938 22.441406 27.023438 22.375 27.597656 22.402344 C 27.332031 22.867188 27.441406 23.25 27.921875 23.546875 C 28.042969 23.625 28.175781 23.664062 28.324219 23.664062 C 27.519531 24.097656 26.660156 24.402344 25.75 24.570312 C 24.972656 24.648438 24.195312 24.6875 23.417969 24.691406 C 22.574219 24.710938 21.742188 24.644531 20.921875 24.492188 C 20.855469 24.558594 20.789062 24.625 20.722656 24.691406 C 20.667969 25.292969 20.667969 25.898438 20.722656 26.503906 C 20.875 27.054688 21.035156 27.605469 21.207031 28.160156 C 21.257812 28.632812 21.257812 29.105469 21.207031 29.582031 C 21.054688 29.671875 20.988281 29.800781 21.003906 29.972656 C 20.746094 30.105469 20.476562 30.226562 20.199219 30.328125 C 19.394531 30.382812 18.589844 30.382812 17.785156 30.328125 C 17.570312 30.128906 17.328125 29.984375 17.0625 29.894531 C 18.234375 30.054688 19.414062 30.09375 20.601562 30.015625 C 21.023438 29.664062 21.023438 29.324219 20.601562 28.988281 C 19.796875 28.960938 18.992188 28.9375 18.1875 28.910156 C 17.835938 28.699219 17.460938 28.554688 17.0625 28.476562 C 16.621094 28.515625 16.40625 28.75 16.417969 29.1875 C 15.910156 28.40625 16.015625 27.710938 16.742188 27.09375 C 17.664062 27.007812 17.933594 26.5625 17.546875 25.753906 C 17.0625 25.703125 16.582031 25.703125 16.097656 25.753906 C 15.265625 26.320312 14.460938 26.925781 13.683594 27.570312 C 13.375 27.75 13.054688 27.90625 12.71875 28.042969 C 12.066406 28.195312 11.394531 28.261719 10.710938 28.238281 C 10.824219 27.945312 10.808594 27.65625 10.667969 27.371094 C 10.4375 27.273438 10.207031 27.167969 9.984375 27.054688 C 9.789062 26.773438 9.65625 26.472656 9.582031 26.148438 C 9.371094 26.109375 9.15625 26.097656 8.941406 26.109375 C 9.082031 26.035156 9.242188 26.007812 9.421875 26.03125 C 10.144531 26.011719 10.839844 25.894531 11.511719 25.675781 C 12.859375 25.574219 14.171875 25.3125 15.453125 24.886719 C 15.628906 24.722656 15.652344 24.539062 15.535156 24.335938 C 13.953125 24.28125 12.371094 24.28125 10.789062 24.335938 C 9.675781 24.558594 8.550781 24.742188 7.410156 24.886719 C 6.289062 25 5.160156 25.027344 4.035156 24.964844 C 3.609375 24.769531 3.179688 24.597656 2.746094 24.453125 C 3.25 24.441406 3.410156 24.203125 3.230469 23.742188 C 3.523438 23.730469 3.820312 23.742188 4.113281 23.78125 C 4.34375 24.4375 4.707031 24.53125 5.199219 24.058594 C 5.253906 23.691406 5.253906 23.324219 5.199219 22.953125 C 5.078125 22.386719 4.984375 21.808594 4.917969 21.21875 C 4.910156 20.792969 5.125 20.542969 5.5625 20.46875 C 6.25 20.378906 6.917969 20.429688 7.574219 20.628906 C 7.914062 20.808594 8.261719 20.980469 8.617188 21.140625 C 9.039062 21.578125 9.441406 22.039062 9.824219 22.519531 C 10.359375 22.785156 10.613281 22.640625 10.589844 22.085938 C 9.695312 21.742188 9.535156 21.191406 10.105469 20.429688 C 10.21875 19.78125 10.378906 19.148438 10.589844 18.535156 C 10.816406 17.394531 11.003906 16.238281 11.152344 15.066406 C 11.175781 14.945312 11.226562 14.839844 11.3125 14.75 C 11.441406 12.753906 11.574219 10.753906 11.714844 8.753906 C 11.832031 8.179688 12.085938 7.664062 12.480469 7.21875 C 13.621094 7.019531 14.667969 7.230469 15.617188 7.847656 C 15.789062 8.070312 15.964844 8.296875 16.136719 8.519531 C 16.3125 8.9375 16.5 9.359375 16.699219 9.78125 C 16.777344 10.042969 16.84375 10.304688 16.902344 10.570312 Z M 16.902344 10.570312 " data-index="4"></path>
<path style="fill-rule: evenodd; fill: rgb(11, 11, 11); fill-opacity: 1; opacity: 1;" d="M 15.050781 9.542969 C 15.210938 9.527344 15.359375 9.550781 15.496094 9.625 C 15.617188 10.125 15.496094 10.558594 15.132812 10.925781 C 14.589844 11.027344 14.253906 10.800781 14.128906 10.253906 C 14.074219 10.070312 14.074219 9.886719 14.128906 9.703125 C 14.523438 9.535156 14.738281 9.667969 14.769531 10.097656 C 14.925781 9.941406 15.019531 9.757812 15.050781 9.542969 Z M 15.050781 9.542969 " data-index="5"></path>
<path style="fill-rule: evenodd; fill: rgb(5, 5, 5); fill-opacity: 1; opacity: 1;" d="M 13.363281 9.78125 C 13.347656 9.914062 13.398438 9.992188 13.523438 10.019531 C 13.574219 10.027344 13.613281 10.054688 13.644531 10.097656 C 13.804688 10.808594 13.523438 11.058594 12.800781 10.847656 C 12.761719 10.804688 12.71875 10.765625 12.679688 10.726562 C 12.625 10.414062 12.625 10.097656 12.679688 9.78125 C 12.917969 9.574219 13.144531 9.574219 13.363281 9.78125 Z M 13.363281 9.78125 " data-index="6"></path>

<path style=" stroke:none;fill-rule:evenodd;fill:rgb(72.549021%,47.058824%,72.156864%);fill-opacity:1;" d="M 16.582031 12.542969 C 16.675781 12.601562 16.785156 12.625 16.902344 12.621094 C 16.832031 12.984375 16.777344 13.355469 16.742188 13.726562 C 16.367188 13.84375 16.261719 13.714844 16.417969 13.332031 C 16.472656 13.066406 16.527344 12.804688 16.582031 12.542969 Z M 16.582031 12.542969 " data-index="8"></path>

<path style="fill-rule: evenodd; fill: rgb(253, 253, 253); fill-opacity: 1; opacity: 1;" d="M 12.71875 15.382812 C 13.433594 15.316406 14.101562 15.445312 14.730469 15.777344 C 15.453125 16.929688 15.5625 18.136719 15.050781 19.40625 C 14.441406 19.941406 13.796875 20.441406 13.121094 20.902344 C 12.308594 21.121094 11.601562 20.964844 10.992188 20.429688 C 10.9375 19.324219 10.9375 18.222656 10.992188 17.117188 C 11.242188 16.214844 11.820312 15.636719 12.71875 15.382812 Z M 12.71875 15.382812 " data-index="10"></path>
<path style=" stroke:none;fill-rule:evenodd;fill:rgb(4.313726%,4.313726%,4.313726%);fill-opacity:1;" d="M 12.480469 16.171875 C 12.988281 16.15625 13.496094 16.171875 14.007812 16.210938 C 14.324219 16.195312 14.460938 16.339844 14.410156 16.644531 C 13.847656 16.578125 13.285156 16.566406 12.71875 16.605469 C 12.28125 16.878906 12.039062 17.273438 11.996094 17.789062 C 12.019531 17.898438 12.070312 17.988281 12.15625 18.0625 C 12.59375 18.296875 12.957031 18.613281 13.242188 19.011719 C 13.3125 19.46875 13.109375 19.773438 12.640625 19.917969 C 12.210938 19.96875 11.78125 19.96875 11.351562 19.917969 C 11.246094 19.8125 11.246094 19.707031 11.351562 19.601562 C 11.699219 19.574219 12.050781 19.550781 12.398438 19.523438 C 12.5625 19.46875 12.699219 19.375 12.800781 19.246094 C 12.503906 18.863281 12.140625 18.546875 11.714844 18.300781 C 11.503906 17.421875 11.757812 16.710938 12.480469 16.171875 Z M 12.480469 16.171875 " data-index="11"></path>
<path style=" stroke:none;fill-rule:evenodd;fill:rgb(70.980394%,30.588236%,70.588237%);fill-opacity:1;" d="M 28.324219 23.664062 C 28.175781 23.664062 28.042969 23.625 27.921875 23.546875 C 27.441406 23.25 27.332031 22.867188 27.597656 22.402344 C 27.816406 22.25 28.054688 22.210938 28.324219 22.285156 C 28.683594 22.519531 29.035156 22.769531 29.367188 23.03125 C 29.132812 23.1875 28.917969 23.371094 28.726562 23.585938 C 28.597656 23.648438 28.464844 23.675781 28.324219 23.664062 Z M 28.324219 23.664062 " data-index="12"></path>
<path style="fill-rule: evenodd; fill: rgb(195, 114, 195); fill-opacity: 1; visibility: visible; opacity: 1;" d="M 1.460938 23.664062 C 1.378906 23.714844 1.300781 23.769531 1.21875 23.820312 C 1.105469 23.804688 0.996094 23.765625 0.898438 23.703125 C 1.082031 23.664062 1.269531 23.652344 1.460938 23.664062 Z M 1.460938 23.664062 " data-index="13"></path>
<path style="fill-rule: evenodd; fill: rgb(178, 77, 178); fill-opacity: 1; visibility: visible; opacity: 1;" d="M 3.230469 23.742188 C 3.410156 24.203125 3.25 24.441406 2.746094 24.453125 C 2.71875 24.453125 2.691406 24.453125 2.667969 24.453125 C 2.324219 24.230469 1.949219 24.101562 1.539062 24.058594 C 1.464844 23.941406 1.359375 23.863281 1.21875 23.820312 C 1.300781 23.769531 1.378906 23.714844 1.460938 23.664062 C 1.574219 23.554688 1.707031 23.472656 1.863281 23.425781 C 2.304688 23.589844 2.761719 23.695312 3.230469 23.742188 Z M 3.230469 23.742188 " data-index="14"></path>
<path style="fill-rule: evenodd; fill: rgb(121, 41, 121); fill-opacity: 1; visibility: visible; opacity: 1;" d="M 1.539062 24.058594 C 1.949219 24.101562 2.324219 24.230469 2.667969 24.453125 C 2.21875 24.496094 1.84375 24.363281 1.539062 24.058594 Z M 1.539062 24.058594 " data-index="15"></path>

<path style="fill-rule: evenodd; fill: rgb(233, 233, 233); fill-opacity: 1; opacity: 1; visibility: hidden;" d="M 11.03125 25.003906 C 11.132812 24.988281 11.214844 25.011719 11.273438 25.082031 C 11.183594 25.089844 11.101562 25.113281 11.03125 25.164062 C 10.902344 25.183594 10.796875 25.15625 10.710938 25.082031 C 10.804688 25.027344 10.914062 25 11.03125 25.003906 Z M 11.03125 25.003906 " data-index="17"></path>
<path style="fill-rule: evenodd; fill: rgb(122, 41, 122); fill-opacity: 1; opacity: 1;" d="M 9.421875 26.03125 C 9.242188 26.007812 9.082031 26.035156 8.941406 26.109375 C 8.859375 26.101562 8.792969 26.128906 8.738281 26.1875 C 8.660156 26.832031 8.699219 27.460938 8.859375 28.082031 C 8.746094 27.941406 8.652344 27.785156 8.578125 27.609375 C 8.523438 27.136719 8.523438 26.660156 8.578125 26.1875 C 8.820312 25.847656 9.101562 25.796875 9.421875 26.03125 Z M 9.421875 26.03125 " data-index="18"></path>
<path style="fill-rule: evenodd; fill: rgb(185, 77, 185); fill-opacity: 1; opacity: 1;" d="M 8.941406 26.109375 C 9.15625 26.097656 9.371094 26.109375 9.582031 26.148438 C 9.65625 26.472656 9.789062 26.773438 9.984375 27.054688 C 10.207031 27.167969 10.4375 27.273438 10.667969 27.371094 C 10.808594 27.65625 10.824219 27.945312 10.710938 28.238281 C 10.710938 28.292969 10.683594 28.316406 10.628906 28.316406 C 10.09375 28.316406 9.554688 28.316406 9.019531 28.316406 C 8.949219 28.253906 8.894531 28.175781 8.859375 28.082031 C 8.699219 27.460938 8.660156 26.832031 8.738281 26.1875 C 8.792969 26.128906 8.859375 26.101562 8.941406 26.109375 Z M 8.941406 26.109375 " data-index="19"></path>

<path style="fill-rule: evenodd; fill: rgb(135, 52, 135); fill-opacity: 1; opacity: 1;" d="M 9.019531 28.316406 C 9.554688 28.316406 10.09375 28.316406 10.628906 28.316406 C 10.390625 28.511719 10.109375 28.589844 9.785156 28.554688 C 9.609375 28.542969 9.4375 28.527344 9.261719 28.515625 C 9.144531 28.484375 9.066406 28.417969 9.019531 28.316406 Z M 9.019531 28.316406 " data-index="21"></path>
<path style="fill-rule: evenodd; fill: rgb(185, 76, 185); fill-opacity: 1; opacity: 1;" d="M 17.0625 29.894531 C 16.859375 29.660156 16.644531 29.425781 16.417969 29.1875 C 16.40625 28.75 16.621094 28.515625 17.0625 28.476562 C 17.460938 28.554688 17.835938 28.699219 18.1875 28.910156 C 18.992188 28.9375 19.796875 28.960938 20.601562 28.988281 C 21.023438 29.324219 21.023438 29.664062 20.601562 30.015625 C 19.414062 30.09375 18.234375 30.054688 17.0625 29.894531 Z M 17.0625 29.894531 " data-index="22"></path>
</g>
</svg>